<svg width="24" height="24" viewBox="0 0 24 24" fill="none" xmlns="http://www.w3.org/2000/svg">
<path d="M0 12C0 18.6172 5.38373 24 12 24C18.6172 24 24 18.6172 24 12C24 5.38373 18.6172 0 12 0C5.38373 0 0 5.38373 0 12Z" fill="#0E8345"/>
<path d="M10.8147 15.9992C10.5896 15.9992 10.3745 15.9091 10.2157 15.7474L7.11601 12.5896C6.79092 12.2578 6.79512 11.7256 7.1261 11.3989C7.45707 11.0738 7.98881 11.0772 8.31389 11.409L10.7903 13.9319L15.9137 8.27557C16.227 7.93116 16.7579 7.90675 17.0998 8.21832C17.4433 8.53075 17.4685 9.06293 17.1569 9.40818L11.4363 15.7238C11.2809 15.8956 11.0625 15.9949 10.8315 16C10.8256 15.9992 10.8206 15.9992 10.8147 15.9992Z" fill="white"/>
</svg>
